<mxfile host="app.diagrams.net" modified="2024-02-18T14:40:24.190Z" agent="Mozilla/5.0 (X11; Linux x86_64; rv:109.0) Gecko/20100101 Firefox/115.0" etag="afytDzgWl2YJTds-SrbW" version="23.1.5" type="device">
  <diagram name="Page-1" id="13e1069c-82ec-6db2-03f1-153e76fe0fe0">
    <mxGraphModel dx="2074" dy="1075" grid="1" gridSize="10" guides="1" tooltips="1" connect="1" arrows="1" fold="1" page="1" pageScale="1" pageWidth="1100" pageHeight="850" background="none" math="0" shadow="0">
      <root>
        <mxCell id="0" />
        <mxCell id="1" parent="0" />
        <mxCell id="_pntS4e-dC1cDCSCj7Di-54" value="&lt;div&gt;&lt;i&gt;&lt;b&gt;SPRING&amp;nbsp; SECURITY&lt;/b&gt;&lt;/i&gt;&lt;/div&gt;" style="rounded=1;whiteSpace=wrap;html=1;fillColor=#d5e8d4;strokeColor=#82b366;" parent="1" vertex="1">
          <mxGeometry x="490" y="180" width="240" height="130" as="geometry" />
        </mxCell>
        <mxCell id="_pntS4e-dC1cDCSCj7Di-48" value="" style="rounded=1;whiteSpace=wrap;html=1;fillColor=#dae8fc;strokeColor=#6c8ebf;" parent="1" vertex="1">
          <mxGeometry x="880" y="395" width="200" height="155" as="geometry" />
        </mxCell>
        <mxCell id="7baba1c4bc27f4b0-2" value="Front-End" style="shape=umlLifeline;perimeter=lifelinePerimeter;whiteSpace=wrap;html=1;container=1;collapsible=0;recursiveResize=0;outlineConnect=0;rounded=1;shadow=0;comic=0;labelBackgroundColor=none;strokeWidth=1;fontFamily=Verdana;fontSize=12;align=center;" parent="1" vertex="1">
          <mxGeometry x="240" y="60" width="100" height="750" as="geometry" />
        </mxCell>
        <mxCell id="7baba1c4bc27f4b0-10" value="" style="html=1;points=[];perimeter=orthogonalPerimeter;rounded=0;shadow=0;comic=0;labelBackgroundColor=none;strokeWidth=1;fontFamily=Verdana;fontSize=12;align=center;" parent="7baba1c4bc27f4b0-2" vertex="1">
          <mxGeometry x="45" y="100" width="10" height="40" as="geometry" />
        </mxCell>
        <mxCell id="_pntS4e-dC1cDCSCj7Di-47" value="redirect" style="html=1;verticalAlign=bottom;endArrow=open;dashed=1;endSize=8;labelBackgroundColor=none;fontFamily=Verdana;fontSize=12;edgeStyle=elbowEdgeStyle;elbow=vertical;exitX=-0.328;exitY=0.447;exitDx=0;exitDy=0;exitPerimeter=0;" parent="7baba1c4bc27f4b0-2" target="7baba1c4bc27f4b0-8" edge="1">
          <mxGeometry x="0.227" y="-1" relative="1" as="geometry">
            <mxPoint x="-150" y="720" as="targetPoint" />
            <Array as="points" />
            <mxPoint x="228" y="721.21" as="sourcePoint" />
            <mxPoint as="offset" />
          </mxGeometry>
        </mxCell>
        <mxCell id="7baba1c4bc27f4b0-3" value="BackendForFrontend" style="shape=umlLifeline;perimeter=lifelinePerimeter;whiteSpace=wrap;html=1;container=1;collapsible=0;recursiveResize=0;outlineConnect=0;rounded=1;shadow=0;comic=0;labelBackgroundColor=none;strokeWidth=1;fontFamily=Verdana;fontSize=12;align=center;" parent="1" vertex="1">
          <mxGeometry x="400" y="60" width="150" height="750" as="geometry" />
        </mxCell>
        <mxCell id="7baba1c4bc27f4b0-13" value="" style="html=1;points=[];perimeter=orthogonalPerimeter;rounded=0;shadow=0;comic=0;labelBackgroundColor=none;strokeWidth=1;fontFamily=Verdana;fontSize=12;align=center;" parent="7baba1c4bc27f4b0-3" vertex="1">
          <mxGeometry x="70" y="120" width="10" height="120" as="geometry" />
        </mxCell>
        <mxCell id="7baba1c4bc27f4b0-35" value="Authenticated ?" style="html=1;verticalAlign=bottom;endArrow=block;labelBackgroundColor=none;fontFamily=Verdana;fontSize=12;elbow=vertical;edgeStyle=orthogonalEdgeStyle;curved=1;entryX=1;entryY=0.286;entryPerimeter=0;exitX=1.038;exitY=0.345;exitPerimeter=0;" parent="7baba1c4bc27f4b0-3" edge="1">
          <mxGeometry x="0.1873" y="55" relative="1" as="geometry">
            <mxPoint x="79.99999999999989" y="140.01000000000002" as="sourcePoint" />
            <mxPoint x="84.62" y="177.93000000000006" as="targetPoint" />
            <Array as="points">
              <mxPoint x="134.62" y="139.91" />
              <mxPoint x="134.62" y="177.90999999999997" />
            </Array>
            <mxPoint as="offset" />
          </mxGeometry>
        </mxCell>
        <mxCell id="_pntS4e-dC1cDCSCj7Di-1" value="Build authenticate redirect url" style="html=1;verticalAlign=bottom;endArrow=block;labelBackgroundColor=none;fontFamily=Verdana;fontSize=12;elbow=vertical;edgeStyle=orthogonalEdgeStyle;curved=1;entryX=1;entryY=0.286;entryPerimeter=0;exitX=1.038;exitY=0.345;exitPerimeter=0;" parent="7baba1c4bc27f4b0-3" edge="1">
          <mxGeometry x="0.1873" y="95" relative="1" as="geometry">
            <mxPoint x="79.99999999999989" y="190" as="sourcePoint" />
            <mxPoint x="84.62" y="227.92000000000007" as="targetPoint" />
            <Array as="points">
              <mxPoint x="134.62" y="189.89999999999998" />
              <mxPoint x="134.62" y="227.89999999999998" />
            </Array>
            <mxPoint as="offset" />
          </mxGeometry>
        </mxCell>
        <mxCell id="7baba1c4bc27f4b0-21" value="send redirect" style="html=1;verticalAlign=bottom;endArrow=open;dashed=1;endSize=8;labelBackgroundColor=none;fontFamily=Verdana;fontSize=12;edgeStyle=elbowEdgeStyle;elbow=vertical;" parent="7baba1c4bc27f4b0-3" edge="1">
          <mxGeometry relative="1" as="geometry">
            <mxPoint x="-240" y="230" as="targetPoint" />
            <Array as="points">
              <mxPoint x="25" y="230" />
              <mxPoint x="55" y="230" />
            </Array>
            <mxPoint x="70" y="230" as="sourcePoint" />
          </mxGeometry>
        </mxCell>
        <mxCell id="7baba1c4bc27f4b0-23" value="redirect login form" style="html=1;verticalAlign=bottom;endArrow=block;labelBackgroundColor=none;fontFamily=Verdana;fontSize=12;entryX=0;entryY=0.268;entryDx=0;entryDy=0;entryPerimeter=0;" parent="7baba1c4bc27f4b0-3" target="7baba1c4bc27f4b0-19" edge="1">
          <mxGeometry x="-0.2817" relative="1" as="geometry">
            <mxPoint x="-245" y="270.0000000000002" as="sourcePoint" />
            <mxPoint x="319.5" y="270.0000000000002" as="targetPoint" />
            <mxPoint as="offset" />
          </mxGeometry>
        </mxCell>
        <mxCell id="_pntS4e-dC1cDCSCj7Di-8" value="submit credentials" style="html=1;verticalAlign=bottom;endArrow=block;labelBackgroundColor=none;fontFamily=Verdana;fontSize=12;edgeStyle=elbowEdgeStyle;elbow=vertical;" parent="7baba1c4bc27f4b0-3" edge="1" source="7baba1c4bc27f4b0-8">
          <mxGeometry x="-0.0714" relative="1" as="geometry">
            <mxPoint x="-100" y="350" as="sourcePoint" />
            <mxPoint x="460" y="350" as="targetPoint" />
            <mxPoint as="offset" />
          </mxGeometry>
        </mxCell>
        <mxCell id="_pntS4e-dC1cDCSCj7Di-27" value="" style="html=1;points=[];perimeter=orthogonalPerimeter;rounded=0;shadow=0;comic=0;labelBackgroundColor=none;strokeWidth=1;fontFamily=Verdana;fontSize=12;align=center;" parent="7baba1c4bc27f4b0-3" vertex="1">
          <mxGeometry x="70" y="460" width="10" height="270" as="geometry" />
        </mxCell>
        <mxCell id="_pntS4e-dC1cDCSCj7Di-34" value="Verify signature" style="html=1;verticalAlign=bottom;endArrow=block;labelBackgroundColor=none;fontFamily=Verdana;fontSize=12;elbow=vertical;edgeStyle=orthogonalEdgeStyle;curved=1;entryX=1;entryY=0.286;entryPerimeter=0;exitX=1.038;exitY=0.345;exitPerimeter=0;" parent="7baba1c4bc27f4b0-3" edge="1">
          <mxGeometry x="0.1872" y="55" relative="1" as="geometry">
            <mxPoint x="79.99999999999989" y="630" as="sourcePoint" />
            <mxPoint x="84.62" y="667.9200000000001" as="targetPoint" />
            <Array as="points">
              <mxPoint x="134.62" y="629.9" />
              <mxPoint x="134.62" y="667.9" />
            </Array>
            <mxPoint as="offset" />
          </mxGeometry>
        </mxCell>
        <mxCell id="_pntS4e-dC1cDCSCj7Di-44" value="New session" style="html=1;verticalAlign=bottom;endArrow=block;labelBackgroundColor=none;fontFamily=Verdana;fontSize=12;elbow=vertical;edgeStyle=orthogonalEdgeStyle;curved=1;entryX=1;entryY=0.286;entryPerimeter=0;exitX=1.038;exitY=0.345;exitPerimeter=0;" parent="7baba1c4bc27f4b0-3" edge="1">
          <mxGeometry x="0.1872" y="55" relative="1" as="geometry">
            <mxPoint x="79.99999999999989" y="680" as="sourcePoint" />
            <mxPoint x="84.62" y="717.9200000000001" as="targetPoint" />
            <Array as="points">
              <mxPoint x="134.62" y="679.9" />
              <mxPoint x="134.62" y="717.9" />
            </Array>
            <mxPoint as="offset" />
          </mxGeometry>
        </mxCell>
        <mxCell id="_pntS4e-dC1cDCSCj7Di-51" value="" style="shape=curlyBracket;whiteSpace=wrap;html=1;rounded=1;labelPosition=left;verticalLabelPosition=middle;align=right;verticalAlign=middle;" parent="7baba1c4bc27f4b0-3" vertex="1">
          <mxGeometry x="30" y="470" width="30" height="240" as="geometry" />
        </mxCell>
        <mxCell id="7baba1c4bc27f4b0-4" value="Keycloak" style="shape=umlLifeline;perimeter=lifelinePerimeter;whiteSpace=wrap;html=1;container=1;collapsible=0;recursiveResize=0;outlineConnect=0;rounded=1;shadow=0;comic=0;labelBackgroundColor=none;strokeWidth=1;fontFamily=Verdana;fontSize=12;align=center;" parent="1" vertex="1">
          <mxGeometry x="820" y="60" width="100" height="750" as="geometry" />
        </mxCell>
        <mxCell id="7baba1c4bc27f4b0-19" value="" style="html=1;points=[];perimeter=orthogonalPerimeter;rounded=0;shadow=0;comic=0;labelBackgroundColor=none;strokeWidth=1;fontFamily=Verdana;fontSize=12;align=center;" parent="7baba1c4bc27f4b0-4" vertex="1">
          <mxGeometry x="45" y="260" width="10" height="40" as="geometry" />
        </mxCell>
        <mxCell id="_pntS4e-dC1cDCSCj7Di-7" value="" style="html=1;points=[];perimeter=orthogonalPerimeter;rounded=0;shadow=0;comic=0;labelBackgroundColor=none;strokeWidth=1;fontFamily=Verdana;fontSize=12;align=center;" parent="7baba1c4bc27f4b0-4" vertex="1">
          <mxGeometry x="45" y="320" width="10" height="160" as="geometry" />
        </mxCell>
        <mxCell id="_pntS4e-dC1cDCSCj7Di-9" value="Find user &lt;br&gt;in local storage" style="html=1;verticalAlign=bottom;endArrow=block;labelBackgroundColor=none;fontFamily=Verdana;fontSize=12;elbow=vertical;edgeStyle=orthogonalEdgeStyle;curved=1;entryX=1;entryY=0.286;entryPerimeter=0;exitX=1.038;exitY=0.345;exitPerimeter=0;" parent="7baba1c4bc27f4b0-4" edge="1">
          <mxGeometry x="0.1873" y="55" relative="1" as="geometry">
            <mxPoint x="54.999999999999886" y="350" as="sourcePoint" />
            <mxPoint x="59.620000000000005" y="387.9200000000001" as="targetPoint" />
            <Array as="points">
              <mxPoint x="109.62" y="349.9" />
              <mxPoint x="109.62" y="387.9" />
            </Array>
            <mxPoint as="offset" />
          </mxGeometry>
        </mxCell>
        <mxCell id="_pntS4e-dC1cDCSCj7Di-36" value="" style="html=1;points=[];perimeter=orthogonalPerimeter;rounded=0;shadow=0;comic=0;labelBackgroundColor=none;strokeWidth=1;fontFamily=Verdana;fontSize=12;align=center;" parent="7baba1c4bc27f4b0-4" vertex="1">
          <mxGeometry x="45" y="520" width="10" height="140" as="geometry" />
        </mxCell>
        <mxCell id="_pntS4e-dC1cDCSCj7Di-45" value="" style="html=1;verticalAlign=bottom;endArrow=block;labelBackgroundColor=none;fontFamily=Verdana;fontSize=12;elbow=vertical;edgeStyle=orthogonalEdgeStyle;curved=1;" parent="7baba1c4bc27f4b0-4" edge="1">
          <mxGeometry x="0.1873" y="55" relative="1" as="geometry">
            <mxPoint x="55" y="530" as="sourcePoint" />
            <mxPoint x="55" y="560" as="targetPoint" />
            <Array as="points">
              <mxPoint x="95" y="530" />
              <mxPoint x="95" y="560" />
            </Array>
            <mxPoint as="offset" />
          </mxGeometry>
        </mxCell>
        <mxCell id="_pntS4e-dC1cDCSCj7Di-53" value="&lt;font style=&quot;font-size: 12px;&quot;&gt;Forge token&lt;/font&gt;" style="edgeLabel;html=1;align=center;verticalAlign=middle;resizable=0;points=[];" parent="_pntS4e-dC1cDCSCj7Di-45" vertex="1" connectable="0">
          <mxGeometry x="0.0044" y="3" relative="1" as="geometry">
            <mxPoint x="32" as="offset" />
          </mxGeometry>
        </mxCell>
        <mxCell id="_pntS4e-dC1cDCSCj7Di-46" value="" style="html=1;verticalAlign=bottom;endArrow=block;labelBackgroundColor=none;fontFamily=Verdana;fontSize=12;elbow=vertical;edgeStyle=orthogonalEdgeStyle;curved=1;" parent="7baba1c4bc27f4b0-4" edge="1">
          <mxGeometry x="0.1873" y="55" relative="1" as="geometry">
            <mxPoint x="55" y="590" as="sourcePoint" />
            <mxPoint x="55" y="620" as="targetPoint" />
            <Array as="points">
              <mxPoint x="95" y="590" />
              <mxPoint x="95" y="620" />
            </Array>
            <mxPoint as="offset" />
          </mxGeometry>
        </mxCell>
        <mxCell id="7baba1c4bc27f4b0-8" value="User" style="shape=umlLifeline;perimeter=lifelinePerimeter;whiteSpace=wrap;html=1;container=1;collapsible=0;recursiveResize=0;outlineConnect=0;rounded=1;shadow=0;comic=0;labelBackgroundColor=none;strokeWidth=1;fontFamily=Verdana;fontSize=12;align=center;" parent="1" vertex="1">
          <mxGeometry x="100" y="60" width="100" height="750" as="geometry" />
        </mxCell>
        <mxCell id="7baba1c4bc27f4b0-9" value="" style="html=1;points=[];perimeter=orthogonalPerimeter;rounded=0;shadow=0;comic=0;labelBackgroundColor=none;strokeWidth=1;fontFamily=Verdana;fontSize=12;align=center;" parent="7baba1c4bc27f4b0-8" vertex="1">
          <mxGeometry x="45" y="100" width="10" height="200" as="geometry" />
        </mxCell>
        <mxCell id="_pntS4e-dC1cDCSCj7Di-4" value="" style="html=1;points=[];perimeter=orthogonalPerimeter;rounded=0;shadow=0;comic=0;labelBackgroundColor=none;strokeWidth=1;fontFamily=Verdana;fontSize=12;align=center;" parent="7baba1c4bc27f4b0-8" vertex="1">
          <mxGeometry x="45" y="330" width="10" height="70" as="geometry" />
        </mxCell>
        <mxCell id="7baba1c4bc27f4b0-11" value="get resource" style="html=1;verticalAlign=bottom;endArrow=block;entryX=0;entryY=0;labelBackgroundColor=none;fontFamily=Verdana;fontSize=12;edgeStyle=elbowEdgeStyle;elbow=vertical;" parent="1" source="7baba1c4bc27f4b0-9" target="7baba1c4bc27f4b0-10" edge="1">
          <mxGeometry relative="1" as="geometry">
            <mxPoint x="220" y="170" as="sourcePoint" />
          </mxGeometry>
        </mxCell>
        <mxCell id="7baba1c4bc27f4b0-14" value="get resource" style="html=1;verticalAlign=bottom;endArrow=block;entryX=0;entryY=0;labelBackgroundColor=none;fontFamily=Verdana;fontSize=12;edgeStyle=elbowEdgeStyle;elbow=vertical;" parent="1" source="7baba1c4bc27f4b0-10" target="7baba1c4bc27f4b0-13" edge="1">
          <mxGeometry relative="1" as="geometry">
            <mxPoint x="370" y="180" as="sourcePoint" />
          </mxGeometry>
        </mxCell>
        <mxCell id="_pntS4e-dC1cDCSCj7Di-18" value="Business Services" style="shape=umlLifeline;perimeter=lifelinePerimeter;whiteSpace=wrap;html=1;container=1;collapsible=0;recursiveResize=0;outlineConnect=0;rounded=1;shadow=0;comic=0;labelBackgroundColor=none;strokeWidth=1;fontFamily=Verdana;fontSize=12;align=center;" parent="1" vertex="1">
          <mxGeometry x="620" y="60" width="100" height="750" as="geometry" />
        </mxCell>
        <mxCell id="_pntS4e-dC1cDCSCj7Di-21" value="" style="html=1;points=[];perimeter=orthogonalPerimeter;rounded=0;shadow=0;comic=0;labelBackgroundColor=none;strokeWidth=1;fontFamily=Verdana;fontSize=12;align=center;" parent="_pntS4e-dC1cDCSCj7Di-18" vertex="1">
          <mxGeometry x="45" y="380" width="10" height="60" as="geometry" />
        </mxCell>
        <mxCell id="_pntS4e-dC1cDCSCj7Di-42" value="return public key, algos, ..." style="html=1;verticalAlign=bottom;endArrow=open;dashed=1;endSize=8;labelBackgroundColor=none;fontFamily=Verdana;fontSize=12;edgeStyle=elbowEdgeStyle;elbow=vertical;exitX=-0.328;exitY=0.447;exitDx=0;exitDy=0;exitPerimeter=0;entryX=1.448;entryY=0.365;entryDx=0;entryDy=0;entryPerimeter=0;" parent="_pntS4e-dC1cDCSCj7Di-18" edge="1">
          <mxGeometry x="0.227" y="-1" relative="1" as="geometry">
            <mxPoint x="-139" y="620" as="targetPoint" />
            <Array as="points" />
            <mxPoint x="239" y="621.21" as="sourcePoint" />
            <mxPoint as="offset" />
          </mxGeometry>
        </mxCell>
        <mxCell id="_pntS4e-dC1cDCSCj7Di-40" value="return token" style="html=1;verticalAlign=bottom;endArrow=open;dashed=1;endSize=8;labelBackgroundColor=none;fontFamily=Verdana;fontSize=12;edgeStyle=elbowEdgeStyle;elbow=vertical;exitX=-0.328;exitY=0.447;exitDx=0;exitDy=0;exitPerimeter=0;" parent="_pntS4e-dC1cDCSCj7Di-18" edge="1">
          <mxGeometry x="0.227" y="-1" relative="1" as="geometry">
            <mxPoint x="-141" y="560" as="targetPoint" />
            <Array as="points" />
            <mxPoint x="241" y="560.21" as="sourcePoint" />
            <mxPoint as="offset" />
          </mxGeometry>
        </mxCell>
        <mxCell id="_pntS4e-dC1cDCSCj7Di-22" value="findUserByLogin" style="html=1;verticalAlign=bottom;endArrow=open;dashed=1;endSize=8;labelBackgroundColor=none;fontFamily=Verdana;fontSize=12;edgeStyle=elbowEdgeStyle;elbow=vertical;exitX=-0.328;exitY=0.447;exitDx=0;exitDy=0;exitPerimeter=0;" parent="1" source="_pntS4e-dC1cDCSCj7Di-7" edge="1">
          <mxGeometry x="-0.0909" relative="1" as="geometry">
            <mxPoint x="680" y="452" as="targetPoint" />
            <Array as="points" />
            <mxPoint x="750" y="460" as="sourcePoint" />
            <mxPoint as="offset" />
          </mxGeometry>
        </mxCell>
        <mxCell id="_pntS4e-dC1cDCSCj7Di-23" value="&lt;font style=&quot;font-size: 12px;&quot; face=&quot;Verdana&quot;&gt;return user&lt;/font&gt;" style="html=1;verticalAlign=bottom;endArrow=block;curved=0;rounded=0;" parent="1" edge="1">
          <mxGeometry width="80" relative="1" as="geometry">
            <mxPoint x="680" y="480" as="sourcePoint" />
            <mxPoint x="860" y="480" as="targetPoint" />
          </mxGeometry>
        </mxCell>
        <mxCell id="_pntS4e-dC1cDCSCj7Di-24" value="Persist in local storage" style="html=1;verticalAlign=bottom;endArrow=block;labelBackgroundColor=none;fontFamily=Verdana;fontSize=12;elbow=vertical;edgeStyle=orthogonalEdgeStyle;curved=1;entryX=1;entryY=0.286;entryPerimeter=0;exitX=1.038;exitY=0.345;exitPerimeter=0;" parent="1" edge="1">
          <mxGeometry x="0.1907" y="80" relative="1" as="geometry">
            <mxPoint x="874.9999999999999" y="490" as="sourcePoint" />
            <mxPoint x="879.62" y="527.9200000000001" as="targetPoint" />
            <Array as="points">
              <mxPoint x="929.62" y="489.9" />
              <mxPoint x="929.62" y="527.9" />
            </Array>
            <mxPoint as="offset" />
          </mxGeometry>
        </mxCell>
        <mxCell id="_pntS4e-dC1cDCSCj7Di-26" value="&lt;div&gt;redirect with authorization code&lt;/div&gt;" style="html=1;verticalAlign=bottom;endArrow=open;dashed=1;endSize=8;labelBackgroundColor=none;fontFamily=Verdana;fontSize=12;edgeStyle=elbowEdgeStyle;elbow=vertical;exitX=-0.19;exitY=0.941;exitDx=0;exitDy=0;exitPerimeter=0;" parent="1" source="_pntS4e-dC1cDCSCj7Di-7" edge="1">
          <mxGeometry x="-0.0549" y="1" relative="1" as="geometry">
            <mxPoint x="480" y="531" as="targetPoint" />
            <Array as="points" />
            <mxPoint x="755" y="549.31" as="sourcePoint" />
            <mxPoint as="offset" />
          </mxGeometry>
        </mxCell>
        <mxCell id="_pntS4e-dC1cDCSCj7Di-35" value="&lt;font style=&quot;font-size: 12px;&quot; face=&quot;Verdana&quot;&gt;get token&lt;br&gt;&lt;/font&gt;" style="html=1;verticalAlign=bottom;endArrow=block;curved=0;rounded=0;entryX=0.011;entryY=0.079;entryDx=0;entryDy=0;entryPerimeter=0;" parent="1" target="_pntS4e-dC1cDCSCj7Di-36" edge="1">
          <mxGeometry width="80" relative="1" as="geometry">
            <mxPoint x="480" y="590" as="sourcePoint" />
            <mxPoint x="660" y="600" as="targetPoint" />
          </mxGeometry>
        </mxCell>
        <mxCell id="_pntS4e-dC1cDCSCj7Di-41" value="&lt;font style=&quot;font-size: 12px;&quot; face=&quot;Verdana&quot;&gt;get jwks&lt;br&gt;&lt;/font&gt;" style="html=1;verticalAlign=bottom;endArrow=block;curved=0;rounded=0;" parent="1" edge="1">
          <mxGeometry width="80" relative="1" as="geometry">
            <mxPoint x="480" y="650" as="sourcePoint" />
            <mxPoint x="860" y="650" as="targetPoint" />
          </mxGeometry>
        </mxCell>
        <mxCell id="_pntS4e-dC1cDCSCj7Di-49" value="&lt;i&gt;&lt;b&gt;SPI API&lt;/b&gt;&lt;/i&gt;" style="text;strokeColor=none;fillColor=none;align=left;verticalAlign=middle;spacingLeft=4;spacingRight=4;overflow=hidden;points=[[0,0.5],[1,0.5]];portConstraint=eastwest;rotatable=0;whiteSpace=wrap;html=1;" parent="1" vertex="1">
          <mxGeometry x="950" y="450" width="80" height="30" as="geometry" />
        </mxCell>
        <mxCell id="_pntS4e-dC1cDCSCj7Di-52" value="&lt;div&gt;&lt;i&gt;&lt;b&gt;SPRING&amp;nbsp;&lt;/b&gt;&lt;/i&gt;&lt;/div&gt;&lt;div&gt;&lt;i&gt;&lt;b&gt;SECURITY&lt;/b&gt;&lt;/i&gt;&lt;/div&gt;" style="rounded=1;whiteSpace=wrap;html=1;fillColor=#d5e8d4;strokeColor=#82b366;" parent="1" vertex="1">
          <mxGeometry x="310" y="620" width="120" height="60" as="geometry" />
        </mxCell>
      </root>
    </mxGraphModel>
  </diagram>
</mxfile>
